<svg xmlns="http://www.w3.org/2000/svg" version="1.1" xmlns:xlink="http://www.w3.org/1999/xlink" xmlns:svgjs="http://svgjs.dev/svgjs" width="150" height="50" viewBox="0 0 2000 611"><g transform="matrix(1,0,0,1,-1.2099609371109636,-0.4814423929112195)"><svg viewBox="0 0 396 121" data-background-color="#ffffff" preserveAspectRatio="xMidYMid meet" height="611" width="2000" xmlns="http://www.w3.org/2000/svg" xmlns:xlink="http://www.w3.org/1999/xlink"><g id="tight-bounds" transform="matrix(1,0,0,1,0.23957226554796307,0.09534292887440188)"><svg viewBox="0 0 395.52 120.80931414225121" height="120.80931414225121" width="395.52"><g><svg viewBox="0 0 593.1491996237605 181.1740189891074" height="120.80931414225121" width="395.52"><g transform="matrix(1,0,0,1,197.6291996237606,34.5999826128765)"><svg viewBox="0 0 395.52 111.97405376335439" height="111.97405376335439" width="395.52"><g id="textblocktransform"><svg viewBox="0 0 395.52 111.97405376335439" height="111.97405376335439" width="395.52" id="textblock"><g><svg viewBox="0 0 395.52 111.97405376335439" height="111.97405376335439" width="395.52"><g transform="matrix(1,0,0,1,0,0)"><svg width="395.52" viewBox="-1.584269999999998 -23.161128540120696 129.8276259716537 36.754962716569715" height="111.97405376335439" data-palette-color="#000000"><path d="M8.687 9.88v0c-0.103 0.026-0.18-0.033-0.231-0.178-0.059-0.15-0.092-0.241-0.1-0.274v0c-0.153-0.601-0.143-1.549 0.028-2.845 0.166-1.294 0.456-2.789 0.871-4.483 0.406-1.7 0.868-3.465 1.385-5.296 0.517-1.831 1.048-3.61 1.592-5.338 0.537-1.726 1.037-3.263 1.498-4.613 0.46-1.355 0.821-2.369 1.083-3.041v0c-0.903 0.264-2.038 0.615-3.406 1.053-1.374 0.439-2.773 0.957-4.196 1.554-1.417 0.595-2.684 1.265-3.801 2.01-1.116 0.752-1.899 1.578-2.352 2.477v0c-0.095 0.169-0.178 0.369-0.249 0.6-0.065 0.23-0.067 0.464-0.007 0.704v0c0.11 0.433 0.351 0.702 0.722 0.807 0.363 0.1 0.565 0.234 0.608 0.402v0c0.01 0.039-0.026 0.075-0.107 0.11-0.079 0.041-0.135 0.065-0.167 0.073v0c-0.672 0.171-1.36 0.061-2.065-0.33-0.713-0.396-1.155-0.927-1.324-1.593v0c-0.043-0.168-0.06-0.343-0.051-0.523 0.009-0.181 0.008-0.36-0.002-0.536v0c0.165-1.191 0.75-2.255 1.756-3.193 1.015-0.933 2.23-1.751 3.647-2.456 1.412-0.697 2.834-1.283 4.268-1.758 1.435-0.469 2.657-0.832 3.665-1.088v0c0.704-0.179 1.412-0.343 2.125-0.489 0.719-0.149 1.42-0.272 2.103-0.371v0c0.25-0.422 0.663-0.705 1.238-0.852v0c0.136-0.035 0.274-0.046 0.415-0.033 0.149 0.017 0.245 0.11 0.287 0.277v0c0.018 0.071 0.011 0.179-0.02 0.325v0c0.346-0.047 0.871-0.091 1.576-0.133 0.706-0.035 1.449-0.025 2.226 0.032 0.783 0.048 1.471 0.186 2.066 0.413 0.593 0.221 0.949 0.567 1.07 1.038v0c0.025 0.097 0.038 0.255 0.038 0.475-0.001 0.213-0.085 0.342-0.253 0.384v0c-0.032 0.008-0.061-0.012-0.087-0.06-0.033-0.047-0.069-0.082-0.11-0.106v0c-0.178-0.133-0.425-0.222-0.739-0.266-0.314-0.044-0.599-0.071-0.856-0.081v0c-0.94-0.043-1.905-0.01-2.896 0.097-0.991 0.108-1.962 0.266-2.913 0.474v0c-1.355 3.241-2.63 6.514-3.825 9.818-1.193 3.31-2.197 6.662-3.011 10.054v0c-0.217 0.984-0.418 1.991-0.603 3.023-0.185 1.031-0.381 2.054-0.591 3.07v0c-0.016 0.073-0.046 0.197-0.09 0.374-0.046 0.17-0.118 0.267-0.215 0.292zM26.726-11.328v0c-0.34 0.067-0.643-0.005-0.909-0.218-0.273-0.211-0.443-0.487-0.51-0.827v0c-0.115-0.582 0.037-1.186 0.457-1.813 0.425-0.635 0.925-1.009 1.5-1.122v0c0.34-0.067 0.627-0.008 0.861 0.176 0.227 0.186 0.374 0.449 0.441 0.789v0c0.107 0.543-0.027 1.15-0.404 1.823-0.375 0.679-0.854 1.076-1.436 1.192zM22.356 5.693v0c-0.641 0.127-1.211 0.046-1.709-0.243-0.5-0.295-0.814-0.763-0.941-1.404v0c-0.101-0.51-0.069-1.24 0.097-2.19 0.164-0.957 0.401-1.992 0.711-3.107 0.308-1.121 0.622-2.165 0.94-3.132 0.32-0.96 0.589-1.693 0.809-2.199v0c0.187-0.499 0.407-1.001 0.66-1.507 0.252-0.512 0.666-0.825 1.241-0.938v0c0.17-0.034 0.498-0.027 0.983 0.019 0.485 0.047 0.958 0.12 1.419 0.219 0.463 0.106 0.714 0.26 0.754 0.463v0c-0.346 0.211-0.744 0.687-1.195 1.429-0.458 0.743-0.923 1.603-1.396 2.58-0.479 0.978-0.909 1.984-1.289 3.017-0.381 1.027-0.672 1.964-0.871 2.813-0.204 0.856-0.267 1.487-0.186 1.892v0c0.122 0.615 0.49 0.861 1.104 0.739v0c0.477-0.094 1.006-0.464 1.585-1.108 0.573-0.643 1.152-1.41 1.737-2.301 0.584-0.897 1.124-1.792 1.619-2.685 0.49-0.892 0.906-1.637 1.251-2.235 0.344-0.598 0.548-0.904 0.613-0.917v0c0.137-0.027 0.22 0.028 0.247 0.165v0c0.014 0.072-0.109 0.344-0.368 0.817-0.26 0.473-0.596 1.059-1.008 1.759-0.405 0.699-0.831 1.401-1.275 2.108-0.445 0.706-0.826 1.322-1.144 1.847-0.325 0.52-0.543 0.845-0.653 0.975v0c-0.442 0.617-0.979 1.254-1.61 1.909-0.632 0.655-1.34 1.06-2.125 1.215zM18.151 13.57v0c-0.656 0.069-1.292-0.012-1.906-0.242-0.621-0.23-1.07-0.678-1.348-1.347v0l0.507-0.153c0.127 0.503 0.388 0.821 0.784 0.953 0.396 0.133 0.819 0.175 1.27 0.128v0c1.585-0.167 2.952-0.743 4.102-1.729 1.149-0.992 2.132-2.168 2.947-3.527 0.816-1.359 1.483-2.693 2.003-4.001v0l5.193-12.773-1.959 0.206 0.304-0.555 1.909-0.201 2.036-5.02c0.305-0.729 0.688-1.554 1.148-2.474 0.46-0.92 1.027-1.737 1.703-2.451 0.676-0.715 1.461-1.119 2.356-1.213v0c1.618-0.17 2.616 0.526 2.995 2.088v0l-0.352 0.188c-0.194-0.503-0.582-0.723-1.166-0.662v0c-0.378 0.04-0.775 0.309-1.192 0.809-0.417 0.493-0.796 1.039-1.135 1.638-0.34 0.592-0.597 1.051-0.77 1.378v0l-2.411 5.381 2.735-0.287-0.303 0.555-2.696 0.283-6.379 14.305c-1.048 2.342-2.366 4.311-3.954 5.906-1.595 1.596-3.736 2.534-6.421 2.817zM25.093 11.962v0c-0.659 0.043-1.29-0.063-1.895-0.318-0.611-0.254-1.042-0.721-1.293-1.399v0l0.512-0.134c0.106 0.507 0.355 0.835 0.746 0.984 0.39 0.148 0.812 0.208 1.264 0.179v0c1.59-0.103 2.979-0.625 4.167-1.564 1.188-0.946 2.216-2.081 3.086-3.407 0.869-1.326 1.589-2.632 2.16-3.919v0l5.698-12.556-1.966 0.128 0.326-0.542 1.916-0.125 2.234-4.935c0.334-0.717 0.749-1.525 1.246-2.426 0.496-0.901 1.096-1.695 1.799-2.381 0.704-0.687 1.504-1.06 2.403-1.119v0c1.623-0.105 2.593 0.63 2.909 2.206v0l-0.36 0.174c-0.173-0.51-0.553-0.746-1.138-0.708v0c-0.379 0.025-0.787 0.278-1.223 0.761-0.437 0.476-0.837 1.006-1.2 1.591-0.363 0.578-0.638 1.027-0.824 1.347v0l-2.623 5.281 2.744-0.178-0.325 0.542-2.705 0.176-6.944 14.04c-1.14 2.299-2.535 4.213-4.186 5.743-1.658 1.531-3.833 2.384-6.528 2.559zM51.633-14.171v0c-0.346 0.024-0.638-0.085-0.876-0.329-0.244-0.243-0.379-0.538-0.403-0.884v0c-0.042-0.592 0.184-1.173 0.679-1.742 0.5-0.577 1.043-0.886 1.628-0.928v0c0.346-0.024 0.623 0.069 0.832 0.282 0.202 0.213 0.316 0.492 0.34 0.838v0c0.039 0.552-0.17 1.138-0.627 1.759-0.457 0.627-0.981 0.962-1.573 1.004zM45.182 2.176v0c-0.652 0.046-1.207-0.105-1.666-0.454-0.46-0.355-0.712-0.858-0.759-1.51v0c-0.037-0.519 0.086-1.239 0.368-2.161 0.282-0.929 0.645-1.927 1.091-2.995 0.445-1.074 0.886-2.071 1.322-2.991 0.437-0.913 0.795-1.607 1.076-2.081v0c0.247-0.472 0.528-0.943 0.842-1.413 0.314-0.477 0.763-0.736 1.349-0.777v0c0.173-0.012 0.497 0.035 0.972 0.141 0.475 0.107 0.936 0.238 1.381 0.394 0.446 0.162 0.676 0.346 0.691 0.552v0c-0.369 0.167-0.824 0.59-1.364 1.27-0.547 0.68-1.115 1.476-1.705 2.386-0.597 0.911-1.148 1.856-1.654 2.834-0.506 0.972-0.91 1.866-1.214 2.683-0.309 0.824-0.449 1.442-0.42 1.854v0c0.044 0.625 0.379 0.916 1.004 0.871v0c0.485-0.034 1.056-0.335 1.711-0.903 0.648-0.567 1.318-1.256 2.009-2.067 0.691-0.818 1.338-1.639 1.941-2.463 0.597-0.824 1.103-1.512 1.518-2.063 0.415-0.551 0.656-0.828 0.723-0.833v0c0.14-0.01 0.214 0.055 0.224 0.195v0c0.005 0.073-0.151 0.328-0.467 0.765-0.317 0.437-0.723 0.977-1.219 1.62-0.489 0.643-0.998 1.287-1.527 1.933-0.529 0.646-0.984 1.209-1.364 1.69-0.387 0.475-0.644 0.771-0.769 0.887v0c-0.515 0.558-1.127 1.122-1.835 1.694-0.708 0.571-1.461 0.885-2.259 0.942zM61.205 1.578v0c-0.693 0.003-1.214-0.231-1.563-0.703-0.349-0.465-0.525-1.024-0.528-1.677v0c-0.004-0.907 0.198-1.898 0.606-2.973 0.415-1.075 0.88-2.117 1.395-3.127 0.509-1.002 0.971-1.861 1.389-2.576 0.41-0.709 0.615-1.17 0.613-1.383v0c0-0.067-0.034-0.1-0.1-0.1v0c-0.107 0-0.23 0.044-0.37 0.132-0.133 0.087-0.236 0.164-0.309 0.232v0c-1.037 0.698-2.116 1.673-3.236 2.925-1.121 1.259-2.171 2.573-3.152 3.944-0.98 1.371-1.798 2.612-2.453 3.722v0c-0.377 0.662-0.815 1.074-1.314 1.236-0.499 0.156-1.096 0.235-1.789 0.238v0c0.237-0.554 0.495-1.092 0.773-1.614 0.271-0.521 0.529-1.026 0.773-1.513v0c0.409-0.835 0.786-1.66 1.128-2.475 0.343-0.815 0.686-1.64 1.029-2.475v0c0.27-0.728 0.559-1.586 0.868-2.574 0.309-0.988 0.461-1.862 0.458-2.622v0c-0.001-0.213-0.019-0.423-0.053-0.63-0.034-0.207-0.105-0.396-0.213-0.569v0c-0.107-0.106-0.161-0.159-0.161-0.159v0c-0.001-0.207 0.122-0.311 0.369-0.312v0c0.207-0.001 0.571 0.121 1.092 0.365 0.521 0.238 1.016 0.519 1.484 0.843 0.468 0.331 0.703 0.633 0.704 0.907v0c0.002 0.52-0.194 1.268-0.59 2.242-0.389 0.968-0.834 1.914-1.337 2.837-0.496 0.922-0.916 1.608-1.26 2.056v0c-0.033 0.04-0.076 0.094-0.129 0.16-0.053 0.067-0.079 0.137-0.079 0.211v0l0.05 0.049c0.073 0 0.352-0.305 0.836-0.914 0.477-0.609 1.087-1.365 1.829-2.268 0.742-0.903 1.562-1.817 2.457-2.742 0.896-0.924 1.792-1.692 2.69-2.302 0.897-0.611 1.729-0.918 2.495-0.922v0c0.38-0.002 0.814 0.093 1.302 0.284 0.481 0.191 0.722 0.527 0.724 1.007v0c0.001 0.14-0.032 0.27-0.098 0.39-0.066 0.127-0.135 0.257-0.208 0.391v0c-1.067 1.465-2.063 2.883-2.99 4.254-0.934 1.371-1.76 2.925-2.479 4.662v0c-0.066 0.207-0.141 0.424-0.227 0.651-0.086 0.227-0.128 0.461-0.126 0.701v0c0.003 0.627 0.314 0.939 0.934 0.935v0c0.52-0.002 1.125-0.265 1.816-0.788 0.691-0.523 1.408-1.167 2.151-1.93 0.743-0.77 1.443-1.547 2.1-2.33 0.65-0.783 1.2-1.436 1.651-1.958 0.444-0.522 0.703-0.783 0.776-0.783v0c0.1 0 0.15 0.069 0.151 0.209v0c0 0.033-0.146 0.234-0.437 0.602-0.292 0.368-0.593 0.726-0.905 1.074-0.305 0.348-0.511 0.572-0.617 0.673v0c-0.584 0.663-1.247 1.436-1.989 2.319-0.743 0.89-1.529 1.7-2.359 2.431-0.823 0.73-1.668 1.254-2.533 1.572v0c-0.313 0.108-0.659 0.163-1.039 0.165zM78.089 4.323v0c-1.519-0.15-3.079-0.498-4.68-1.045-1.595-0.539-2.91-1.399-3.946-2.58v0c-0.06-0.073-0.086-0.146-0.078-0.219v0c0.014-0.139 0.107-0.2 0.279-0.183v0l0.193 0.079c1.001 0.447 2.029 0.79 3.084 1.028 1.061 0.245 2.126 0.421 3.194 0.526v0c1.134 0.112 2.479 0.064 4.033-0.144 1.555-0.215 3.082-0.613 4.58-1.196 1.504-0.582 2.774-1.361 3.808-2.337 1.041-0.976 1.631-2.174 1.772-3.593v0c0.105-1.068-0.177-1.903-0.848-2.505-0.677-0.609-1.496-1.065-2.457-1.369-0.962-0.303-1.857-0.495-2.687-0.576v0c-0.896-0.088-1.956-0.099-3.182-0.033-1.226 0.073-2.412 0.271-3.555 0.593-1.144 0.322-2.063 0.815-2.759 1.476v0c-1.354 1.367-2.553 2.86-3.597 4.478-1.051 1.618-2.154 3.187-3.309 4.708v0c-0.173 0.331-0.399 0.483-0.678 0.456v0c-0.172-0.017-0.249-0.128-0.228-0.334v0c0.014-0.139 0.039-0.224 0.075-0.254v0c0.37-0.901 0.831-1.77 1.383-2.607 0.551-0.83 1.093-1.637 1.626-2.422v0c0.203-0.295 0.595-0.839 1.176-1.632 0.587-0.793 1.283-1.736 2.088-2.829 0.797-1.087 1.644-2.202 2.541-3.346 0.897-1.151 1.744-2.226 2.539-3.226 0.795-1 1.478-1.804 2.047-2.411 0.562-0.601 0.912-0.895 1.052-0.881v0c0.172 0.017 0.452 0.105 0.838 0.264 0.38 0.158 0.751 0.332 1.114 0.522 0.369 0.197 0.596 0.37 0.682 0.52v0c-1.15 1.065-2.3 2.124-3.448 3.176-1.149 1.052-2.279 2.116-3.391 3.192v0c1.639-0.046 3.362-0.231 5.17-0.554 1.808-0.331 3.487-0.748 5.037-1.251v0c0.542-0.194 1.195-0.471 1.961-0.832 0.766-0.36 1.538-0.789 2.318-1.288 0.779-0.493 1.441-1.027 1.987-1.603 0.545-0.569 0.85-1.182 0.916-1.839v0c0.065-0.657-0.156-1.168-0.663-1.532-0.501-0.358-1.085-0.613-1.753-0.766-0.662-0.152-1.234-0.253-1.719-0.3v-0.001c-1.931-0.191-3.833-0.127-5.706 0.191-1.88 0.317-3.762 0.68-5.645 1.09v0c-0.143 0.019-0.285 0.039-0.428 0.058-0.143 0.019-0.28 0.023-0.413 0.01v0c-0.418-0.041-0.716-0.208-0.895-0.5-0.178-0.299-0.249-0.638-0.211-1.016v0c0.085-0.862 0.505-1.414 1.259-1.654v0c0.249-0.076 0.505-0.128 0.769-0.156 0.264-0.028 0.52-0.046 0.769-0.054v0c1.693-0.255 3.409-0.471 5.148-0.647 1.746-0.176 3.461-0.181 5.147-0.015v0c0.935 0.092 1.953 0.307 3.051 0.643 1.099 0.336 2.022 0.856 2.77 1.56 0.748 0.697 1.063 1.649 0.944 2.857v0c-0.109 1.101-0.623 2.069-1.543 2.902-0.92 0.834-2.034 1.534-3.342 2.102-1.309 0.567-2.597 1.033-3.866 1.397-1.275 0.356-2.345 0.616-3.212 0.778-0.873 0.155-1.311 0.249-1.314 0.282v0l0.159 0.016c0.279 0.028 0.565 0.049 0.858 0.064 0.294 0.009 0.58 0.027 0.858 0.055v0c0.823 0.081 1.717 0.247 2.685 0.496 0.973 0.257 1.878 0.618 2.716 1.082 0.845 0.465 1.516 1.064 2.014 1.797 0.504 0.726 0.704 1.624 0.598 2.692v0c-0.071 0.723-0.276 1.406-0.614 2.049-0.345 0.649-0.753 1.245-1.222 1.789v0c-1.105 1.284-2.425 2.303-3.959 3.055-1.541 0.752-3.16 1.272-4.857 1.561-1.697 0.288-3.374 0.35-5.033 0.186zM97.726 4.987v0c-0.983-0.216-1.821-0.72-2.514-1.514-0.694-0.787-0.926-1.705-0.696-2.753v0c0.171-0.781 0.63-1.657 1.374-2.627 0.747-0.976 1.655-1.93 2.727-2.862 1.073-0.939 2.223-1.778 3.45-2.519 1.227-0.741 2.407-1.298 3.541-1.67 1.126-0.374 2.096-0.472 2.91-0.293v0c0.267 0.059 0.554 0.166 0.861 0.322 0.3 0.155 0.489 0.384 0.566 0.687v0c0.684 0.116 1.114 0.412 1.29 0.887 0.181 0.483 0.204 1.031 0.069 1.643v0c-0.2 0.912-0.69 1.886-1.47 2.923-0.774 1.038-1.631 2.004-2.571 2.896-0.946 0.891-1.78 1.613-2.502 2.165v0l0.292 0.115c0.976 0.248 1.893 0.238 2.751-0.031 0.859-0.276 1.692-0.68 2.498-1.213 0.813-0.531 1.588-1.034 2.327-1.506v0l0.131-0.084c0.098 0.021 0.128 0.117 0.09 0.286v0c-0.016 0.072-0.043 0.12-0.083 0.145v0c-0.624 0.573-1.383 1.123-2.276 1.651-0.902 0.532-1.842 0.93-2.822 1.193-0.979 0.263-1.908 0.298-2.787 0.105v0c-0.137-0.03-0.264-0.058-0.381-0.084-0.117-0.026-0.241-0.07-0.37-0.132v0c-0.541 0.38-1.176 0.773-1.907 1.179-0.731 0.406-1.484 0.729-2.26 0.968-0.782 0.238-1.529 0.279-2.238 0.123zM98.196 4.291v0c0.879 0.193 1.818 0.006 2.815-0.559 0.99-0.561 1.821-1.085 2.495-1.572v0c-0.179-0.148-0.394-0.383-0.644-0.704-0.244-0.32-0.336-0.616-0.276-0.89v0c0.103-0.469 0.52-0.845 1.251-1.128 0.738-0.282 1.534-0.506 2.39-0.674 0.849-0.169 1.462-0.3 1.837-0.395v0c0.457-0.466 0.903-1.034 1.336-1.703 0.427-0.671 0.711-1.328 0.853-1.973v0c0.081-0.371 0.077-0.707-0.014-1.007-0.09-0.306-0.356-0.508-0.799-0.605v0c-0.371-0.081-0.78-0.083-1.228-0.004-0.441 0.081-0.833 0.172-1.176 0.275v0c-1.926 0.533-3.767 1.443-5.524 2.729-1.749 1.282-3.105 2.827-4.068 4.636v0c-0.083 0.193-0.172 0.396-0.266 0.607-0.101 0.21-0.173 0.416-0.218 0.618v0c-0.119 0.54-0.087 1.035 0.094 1.485 0.188 0.451 0.568 0.739 1.142 0.864zM105.008 12.897v0c-0.561-0.173-1.053-0.489-1.476-0.948-0.417-0.457-0.529-0.997-0.336-1.621v0c0.205-0.662 0.717-1.383 1.537-2.163 0.822-0.786 1.769-1.557 2.84-2.315 1.063-0.753 2.098-1.438 3.105-2.055 1.007-0.617 1.798-1.088 2.372-1.412v0c0.093-0.55 0.204-1.088 0.331-1.614 0.128-0.526 0.273-1.053 0.437-1.582v0c-0.102 0.08-0.346 0.249-0.732 0.506-0.389 0.264-0.765 0.51-1.129 0.74-0.36 0.238-0.59 0.341-0.692 0.31v0c-0.096-0.03-0.128-0.095-0.096-0.198v0c0.01-0.032 0.139-0.135 0.388-0.309 0.258-0.179 0.533-0.359 0.827-0.54 0.287-0.183 0.464-0.317 0.532-0.401v0c0.548-0.487 0.93-0.934 1.147-1.341 0.215-0.401 0.395-0.816 0.541-1.245 0.151-0.421 0.375-0.875 0.672-1.363v0c0.073-0.124 0.373-0.213 0.899-0.266 0.528-0.06 1.069-0.085 1.624-0.074 0.561 0.013 0.905 0.039 1.033 0.078v0c0.07 0.022 0.095 0.064 0.076 0.128v0c-0.453 0.879-0.889 1.759-1.308 2.642-0.421 0.889-0.806 1.785-1.155 2.689v0c0.465-0.219 1.224-0.564 2.276-1.034 1.052-0.47 2.201-0.96 3.447-1.468 1.244-0.502 2.391-0.897 3.444-1.187 1.048-0.297 1.82-0.369 2.317-0.215v0c0.236 0.073 0.339 0.213 0.31 0.42v0l-0.123 0.025c-0.654-0.097-1.529 0.013-2.625 0.33-1.094 0.311-2.259 0.729-3.496 1.254-1.23 0.527-2.37 1.054-3.419 1.581-1.055 0.525-1.868 0.954-2.438 1.287v0l-0.062 0.201c-0.153 0.497-0.304 1.131-0.452 1.902-0.147 0.771-0.155 1.494-0.021 2.17 0.139 0.678 0.556 1.124 1.25 1.339v0c0.694 0.215 1.549 0.168 2.565-0.139 1.02-0.299 2.034-0.701 3.042-1.206 1.007-0.505 1.856-0.958 2.545-1.36 0.685-0.409 1.046-0.608 1.084-0.596v0c0.096 0.03 0.123 0.111 0.081 0.245v0c-0.01 0.032-0.024 0.055-0.042 0.07-0.025 0.013-0.038 0.02-0.038 0.02v0c-0.596 0.395-1.375 0.859-2.335 1.393-0.962 0.54-1.984 1.058-3.066 1.554-1.077 0.505-2.124 0.879-3.141 1.123-1.026 0.248-1.886 0.265-2.58 0.051v0c-0.662-0.205-1.153-0.583-1.47-1.135-0.318-0.552-0.497-1.169-0.538-1.851-0.047-0.684-0.055-1.311-0.026-1.882v0c-0.548 0.375-1.245 0.847-2.091 1.416-0.848 0.575-1.696 1.21-2.545 1.904-0.851 0.7-1.608 1.411-2.271 2.134-0.655 0.719-1.084 1.409-1.29 2.072v0c-0.112 0.363-0.138 0.683-0.076 0.96 0.063 0.271 0.292 0.467 0.686 0.589v0c0.102 0.031 0.132 0.114 0.091 0.248v0c-0.051 0.166-0.195 0.212-0.43 0.139z" opacity="1" transform="matrix(1,0,0,1,0,0)" fill="#000000" class="wordmark-text-0" data-fill-palette-color="primary" id="text-0"></path></svg></g></svg></g></svg></g></svg></g><g><svg viewBox="0 0 160.87003410239709 181.1740189891074" height="181.1740189891074" width="160.87003410239709"><g><svg xmlns="http://www.w3.org/2000/svg" xmlns:xlink="http://www.w3.org/1999/xlink" version="1.1" x="0" y="0" viewBox="29.500000000000018 26.9 41.2 46.4" enable-background="new 0 0 100 100" xml:space="preserve" height="181.1740189891074" width="160.87003410239709" class="icon-icon-0" data-fill-palette-color="accent" id="icon-0"><g fill="#f3274c" data-fill-palette-color="accent"><g fill="#f3274c" data-fill-palette-color="accent"><path d="M69.9 59.4h-0.6V35.6c0-1.7-1.4-3.1-3.1-3.1-0.6 0-1.2 0.2-1.6 0.5-1.8-1.1-4.3-2.1-7.3-2.6-1.7-2.1-4.3-3.5-7.2-3.5-2.9 0-5.5 1.4-7.2 3.5-3 0.6-5.6 1.5-7.3 2.6-0.5-0.3-1-0.5-1.6-0.5-1.7 0-3.1 1.4-3.1 3.1v23.8h-0.6c-0.4 0-0.8 0.3-0.8 0.8v2.4c0 0.4 0.3 0.8 0.8 0.8h2.7v2.8c0 4 7.5 7.1 17.1 7.1 9.6 0 17.1-3.1 17.1-7.1v-2.8h2.7c0.4 0 0.8-0.3 0.8-0.8v-2.4C70.6 59.7 70.3 59.4 69.9 59.4zM50 28.3c1.8 0 3.4 0.6 4.7 1.6-1.5-0.2-3.1-0.3-4.7-0.3-1.6 0-3.2 0.1-4.7 0.3C46.6 28.9 48.2 28.3 50 28.3zM40.1 35.2c-0.4 0-0.8 0.3-0.8 0.8s0.3 0.8 0.8 0.8h3c0.4 0 0.8-0.3 0.8-0.8s-0.3-0.8-0.8-0.8h-0.7c0.1-1.3 0.6-2.5 1.3-3.5 1.9-0.3 4-0.5 6.3-0.5 2.3 0 4.4 0.2 6.3 0.5 0.7 1 1.1 2.2 1.3 3.5h-0.7c-0.4 0-0.8 0.3-0.8 0.8s0.3 0.8 0.8 0.8h3c0.4 0 0.8-0.3 0.8-0.8s-0.3-0.8-0.8-0.8h-0.8c-0.1-1.1-0.4-2.2-0.8-3.1 2.2 0.5 3.9 1.2 5.2 2-0.3 0.5-0.4 1-0.4 1.5V37c0 0.4 0.3 0.8 0.8 0.8 0.4 0 0.8-0.3 0.8-0.8v-1.5c0-0.2 0-0.4 0.1-0.6 0.6 0.6 1 1.2 1 1.8 0 2.6-6.4 5.6-15.6 5.6-9.2 0-15.6-2.9-15.6-5.6 0-0.6 0.4-1.2 1-1.8 0.1 0.2 0.1 0.4 0.1 0.6V37c0 0.4 0.3 0.8 0.8 0.8S37 37.5 37 37v-1.5c0-0.6-0.2-1.1-0.4-1.5 1.3-0.8 3-1.5 5.2-2-0.5 1-0.7 2-0.8 3.1H40.1zM34.4 39.7c2.7 2.5 8.6 4.1 15.6 4.1 7.1 0 13-1.7 15.6-4.1v6.5c0 2.6-6.4 5.6-15.6 5.6-9.2 0-15.6-2.9-15.6-5.6V39.7zM34.4 49.1c2.7 2.5 8.6 4.1 15.6 4.1 7.1 0 13-1.7 15.6-4.1v7c0 2.6-6.4 5.6-15.6 5.6-9.2 0-15.6-2.9-15.6-5.6V49.1zM32.6 61.8h-1.7v-0.9h1.7V61.8zM32.2 59.4V35.6c0-0.9 0.7-1.6 1.6-1.6 0.1 0 0.2 0 0.3 0-0.8 0.8-1.3 1.8-1.3 2.8v22.6H32.2zM50 71.7c-9.2 0-15.6-2.9-15.6-5.6V59c2.7 2.5 8.6 4.1 15.6 4.1 7.1 0 13-1.7 15.6-4.1v7.1C65.6 68.8 59.2 71.7 50 71.7zM67.1 36.8c0-1-0.5-1.9-1.3-2.8 0.1 0 0.2 0 0.3 0 0.9 0 1.6 0.7 1.6 1.6v23.8h-0.6V36.8zM69.1 61.8h-1.7v-0.9h1.7V61.8z" fill="#f3274c" data-fill-palette-color="accent"></path><path d="M38.2 38.2c-0.2 0.4 0 0.8 0.4 1 2.9 1.3 7 2 11.4 2 0.4 0 0.8-0.3 0.8-0.8s-0.3-0.8-0.8-0.8c-4.2 0-8.1-0.7-10.8-1.9C38.8 37.7 38.4 37.8 38.2 38.2z" fill="#f3274c" data-fill-palette-color="accent"></path><path d="M48.5 69c-7.3 0-12.3-2.3-12.3-4.3 0-0.4-0.3-0.7-0.8-0.7-0.4 0-0.8 0.3-0.8 0.7 0 3.3 5.9 5.8 13.8 5.8 0.4 0 0.8-0.3 0.8-0.8S48.9 69 48.5 69z" fill="#f3274c" data-fill-palette-color="accent"></path><path d="M50.2 69.2c-0.1 0.2-0.2 0.3-0.2 0.5 0 0.2 0.1 0.4 0.2 0.5 0.1 0.1 0.3 0.2 0.5 0.2 0.2 0 0.4-0.1 0.5-0.2 0.1-0.1 0.2-0.3 0.2-0.5s-0.1-0.4-0.2-0.5C51 69 50.5 69 50.2 69.2z" fill="#f3274c" data-fill-palette-color="accent"></path><path d="M52.2 41.3c0.2 0 0.4-0.1 0.5-0.2 0.1-0.1 0.2-0.3 0.2-0.5 0-0.2-0.1-0.4-0.2-0.5-0.3-0.3-0.8-0.3-1.1 0-0.1 0.1-0.2 0.3-0.2 0.5 0 0.2 0.1 0.4 0.2 0.5C51.9 41.2 52.1 41.3 52.2 41.3z" fill="#f3274c" data-fill-palette-color="accent"></path><path d="M61.4 44.9c0.2 0 0.4-0.1 0.5-0.2 0.1-0.1 0.2-0.3 0.2-0.5 0-0.2-0.1-0.4-0.2-0.5-0.3-0.3-0.8-0.3-1.1 0-0.1 0.1-0.2 0.3-0.2 0.5 0 0.2 0.1 0.4 0.2 0.5C61 44.8 61.2 44.9 61.4 44.9z" fill="#f3274c" data-fill-palette-color="accent"></path><path d="M63.8 43.6c0.2 0 0.4-0.1 0.5-0.2 0.1-0.1 0.2-0.3 0.2-0.5 0-0.2-0.1-0.4-0.2-0.5-0.3-0.3-0.8-0.3-1.1 0-0.1 0.1-0.2 0.3-0.2 0.5 0 0.2 0.1 0.4 0.2 0.5C63.4 43.5 63.6 43.6 63.8 43.6z" fill="#f3274c" data-fill-palette-color="accent"></path><path d="M63.5 46.1c0.2 0 0.4-0.1 0.5-0.2 0.1-0.1 0.2-0.3 0.2-0.5 0-0.2-0.1-0.4-0.2-0.5-0.3-0.3-0.8-0.3-1.1 0-0.1 0.1-0.2 0.3-0.2 0.5 0 0.2 0.1 0.4 0.2 0.5C63.1 46 63.3 46.1 63.5 46.1z" fill="#f3274c" data-fill-palette-color="accent"></path></g></g></svg></g></svg></g></svg></g><defs></defs></svg><rect width="395.52" height="120.80931414225121" fill="none" stroke="none" visibility="hidden"></rect></g></svg></g></svg>